<mxfile host="app.diagrams.net" modified="2020-11-12T12:14:20.130Z" agent="5.0 (Windows NT 10.0; Win64; x64) AppleWebKit/537.36 (KHTML, like Gecko) Chrome/85.0.4183.102 YaBrowser/20.9.3.126 Yowser/2.5 Safari/537.36" etag="tGUyg5RTMxPmJ0chXFFv" version="13.9.3" type="github">
  <diagram id="fYYC5fIHoKkHruo9iIVv" name="Page-1">
    <mxGraphModel dx="1422" dy="1958" grid="1" gridSize="10" guides="1" tooltips="1" connect="1" arrows="1" fold="1" page="1" pageScale="1" pageWidth="827" pageHeight="1169" math="0" shadow="0">
      <root>
        <mxCell id="0" />
        <mxCell id="1" parent="0" />
        <mxCell id="LwOGB4JMYsIEzYDBbSW3-14" value="Поставщик" style="shape=table;startSize=30;container=1;collapsible=1;childLayout=tableLayout;fixedRows=1;rowLines=0;fontStyle=1;align=center;resizeLast=1;swimlaneFillColor=#ffffff;fillColor=#f5f5f5;strokeColor=#666666;fontColor=#333333;rounded=1;labelBackgroundColor=none;" vertex="1" parent="1">
          <mxGeometry x="720" y="160" width="180" height="130" as="geometry" />
        </mxCell>
        <mxCell id="LwOGB4JMYsIEzYDBbSW3-15" value="" style="shape=partialRectangle;collapsible=0;dropTarget=0;pointerEvents=0;fillColor=none;top=0;left=0;bottom=1;right=0;points=[[0,0.5],[1,0.5]];portConstraint=eastwest;" vertex="1" parent="LwOGB4JMYsIEzYDBbSW3-14">
          <mxGeometry y="30" width="180" height="30" as="geometry" />
        </mxCell>
        <mxCell id="LwOGB4JMYsIEzYDBbSW3-16" value="PK" style="shape=partialRectangle;connectable=0;fillColor=none;top=0;left=0;bottom=0;right=0;fontStyle=1;overflow=hidden;" vertex="1" parent="LwOGB4JMYsIEzYDBbSW3-15">
          <mxGeometry width="30" height="30" as="geometry" />
        </mxCell>
        <mxCell id="LwOGB4JMYsIEzYDBbSW3-17" value="Название" style="shape=partialRectangle;connectable=0;fillColor=none;top=0;left=0;bottom=0;right=0;align=left;spacingLeft=6;fontStyle=5;overflow=hidden;" vertex="1" parent="LwOGB4JMYsIEzYDBbSW3-15">
          <mxGeometry x="30" width="150" height="30" as="geometry" />
        </mxCell>
        <mxCell id="LwOGB4JMYsIEzYDBbSW3-18" value="" style="shape=partialRectangle;collapsible=0;dropTarget=0;pointerEvents=0;fillColor=none;top=0;left=0;bottom=0;right=0;points=[[0,0.5],[1,0.5]];portConstraint=eastwest;" vertex="1" parent="LwOGB4JMYsIEzYDBbSW3-14">
          <mxGeometry y="60" width="180" height="30" as="geometry" />
        </mxCell>
        <mxCell id="LwOGB4JMYsIEzYDBbSW3-19" value="" style="shape=partialRectangle;connectable=0;fillColor=none;top=0;left=0;bottom=0;right=0;editable=1;overflow=hidden;" vertex="1" parent="LwOGB4JMYsIEzYDBbSW3-18">
          <mxGeometry width="30" height="30" as="geometry" />
        </mxCell>
        <mxCell id="LwOGB4JMYsIEzYDBbSW3-20" value="Номер" style="shape=partialRectangle;connectable=0;fillColor=none;top=0;left=0;bottom=0;right=0;align=left;spacingLeft=6;overflow=hidden;" vertex="1" parent="LwOGB4JMYsIEzYDBbSW3-18">
          <mxGeometry x="30" width="150" height="30" as="geometry" />
        </mxCell>
        <mxCell id="LwOGB4JMYsIEzYDBbSW3-21" value="" style="shape=partialRectangle;collapsible=0;dropTarget=0;pointerEvents=0;fillColor=none;top=0;left=0;bottom=0;right=0;points=[[0,0.5],[1,0.5]];portConstraint=eastwest;" vertex="1" parent="LwOGB4JMYsIEzYDBbSW3-14">
          <mxGeometry y="90" width="180" height="30" as="geometry" />
        </mxCell>
        <mxCell id="LwOGB4JMYsIEzYDBbSW3-22" value="" style="shape=partialRectangle;connectable=0;fillColor=none;top=0;left=0;bottom=0;right=0;editable=1;overflow=hidden;" vertex="1" parent="LwOGB4JMYsIEzYDBbSW3-21">
          <mxGeometry width="30" height="30" as="geometry" />
        </mxCell>
        <mxCell id="LwOGB4JMYsIEzYDBbSW3-23" value="Количество поставки" style="shape=partialRectangle;connectable=0;fillColor=none;top=0;left=0;bottom=0;right=0;align=left;spacingLeft=6;overflow=hidden;" vertex="1" parent="LwOGB4JMYsIEzYDBbSW3-21">
          <mxGeometry x="30" width="150" height="30" as="geometry" />
        </mxCell>
        <mxCell id="LwOGB4JMYsIEzYDBbSW3-27" value="Товар" style="shape=table;startSize=30;container=1;collapsible=1;childLayout=tableLayout;fixedRows=1;rowLines=0;fontStyle=1;align=center;resizeLast=1;swimlaneFillColor=#ffffff;rounded=1;fillColor=#f5f5f5;strokeColor=#666666;fontColor=#333333;" vertex="1" parent="1">
          <mxGeometry x="260" y="160" width="180" height="190" as="geometry" />
        </mxCell>
        <mxCell id="LwOGB4JMYsIEzYDBbSW3-28" value="" style="shape=partialRectangle;collapsible=0;dropTarget=0;pointerEvents=0;fillColor=none;top=0;left=0;bottom=1;right=0;points=[[0,0.5],[1,0.5]];portConstraint=eastwest;" vertex="1" parent="LwOGB4JMYsIEzYDBbSW3-27">
          <mxGeometry y="30" width="180" height="30" as="geometry" />
        </mxCell>
        <mxCell id="LwOGB4JMYsIEzYDBbSW3-29" value="PK" style="shape=partialRectangle;connectable=0;fillColor=none;top=0;left=0;bottom=0;right=0;fontStyle=1;overflow=hidden;" vertex="1" parent="LwOGB4JMYsIEzYDBbSW3-28">
          <mxGeometry width="30" height="30" as="geometry" />
        </mxCell>
        <mxCell id="LwOGB4JMYsIEzYDBbSW3-30" value="Название" style="shape=partialRectangle;connectable=0;fillColor=none;top=0;left=0;bottom=0;right=0;align=left;spacingLeft=6;fontStyle=5;overflow=hidden;" vertex="1" parent="LwOGB4JMYsIEzYDBbSW3-28">
          <mxGeometry x="30" width="150" height="30" as="geometry" />
        </mxCell>
        <mxCell id="LwOGB4JMYsIEzYDBbSW3-31" value="" style="shape=partialRectangle;collapsible=0;dropTarget=0;pointerEvents=0;fillColor=none;top=0;left=0;bottom=0;right=0;points=[[0,0.5],[1,0.5]];portConstraint=eastwest;" vertex="1" parent="LwOGB4JMYsIEzYDBbSW3-27">
          <mxGeometry y="60" width="180" height="30" as="geometry" />
        </mxCell>
        <mxCell id="LwOGB4JMYsIEzYDBbSW3-32" value="" style="shape=partialRectangle;connectable=0;fillColor=none;top=0;left=0;bottom=0;right=0;editable=1;overflow=hidden;" vertex="1" parent="LwOGB4JMYsIEzYDBbSW3-31">
          <mxGeometry width="30" height="30" as="geometry" />
        </mxCell>
        <mxCell id="LwOGB4JMYsIEzYDBbSW3-33" value="Код товара (артикул)" style="shape=partialRectangle;connectable=0;fillColor=none;top=0;left=0;bottom=0;right=0;align=left;spacingLeft=6;overflow=hidden;" vertex="1" parent="LwOGB4JMYsIEzYDBbSW3-31">
          <mxGeometry x="30" width="150" height="30" as="geometry" />
        </mxCell>
        <mxCell id="LwOGB4JMYsIEzYDBbSW3-34" value="" style="shape=partialRectangle;collapsible=0;dropTarget=0;pointerEvents=0;fillColor=none;top=0;left=0;bottom=0;right=0;points=[[0,0.5],[1,0.5]];portConstraint=eastwest;" vertex="1" parent="LwOGB4JMYsIEzYDBbSW3-27">
          <mxGeometry y="90" width="180" height="30" as="geometry" />
        </mxCell>
        <mxCell id="LwOGB4JMYsIEzYDBbSW3-35" value="" style="shape=partialRectangle;connectable=0;fillColor=none;top=0;left=0;bottom=0;right=0;editable=1;overflow=hidden;" vertex="1" parent="LwOGB4JMYsIEzYDBbSW3-34">
          <mxGeometry width="30" height="30" as="geometry" />
        </mxCell>
        <mxCell id="LwOGB4JMYsIEzYDBbSW3-36" value="Описание" style="shape=partialRectangle;connectable=0;fillColor=none;top=0;left=0;bottom=0;right=0;align=left;spacingLeft=6;overflow=hidden;" vertex="1" parent="LwOGB4JMYsIEzYDBbSW3-34">
          <mxGeometry x="30" width="150" height="30" as="geometry" />
        </mxCell>
        <mxCell id="LwOGB4JMYsIEzYDBbSW3-37" value="" style="shape=partialRectangle;collapsible=0;dropTarget=0;pointerEvents=0;fillColor=none;top=0;left=0;bottom=0;right=0;points=[[0,0.5],[1,0.5]];portConstraint=eastwest;" vertex="1" parent="LwOGB4JMYsIEzYDBbSW3-27">
          <mxGeometry y="120" width="180" height="30" as="geometry" />
        </mxCell>
        <mxCell id="LwOGB4JMYsIEzYDBbSW3-38" value="" style="shape=partialRectangle;connectable=0;fillColor=none;top=0;left=0;bottom=0;right=0;editable=1;overflow=hidden;" vertex="1" parent="LwOGB4JMYsIEzYDBbSW3-37">
          <mxGeometry width="30" height="30" as="geometry" />
        </mxCell>
        <mxCell id="LwOGB4JMYsIEzYDBbSW3-39" value="Цена" style="shape=partialRectangle;connectable=0;fillColor=none;top=0;left=0;bottom=0;right=0;align=left;spacingLeft=6;overflow=hidden;" vertex="1" parent="LwOGB4JMYsIEzYDBbSW3-37">
          <mxGeometry x="30" width="150" height="30" as="geometry" />
        </mxCell>
        <mxCell id="LwOGB4JMYsIEzYDBbSW3-24" value="" style="shape=partialRectangle;collapsible=0;dropTarget=0;pointerEvents=0;fillColor=none;top=0;left=0;bottom=0;right=0;points=[[0,0.5],[1,0.5]];portConstraint=eastwest;" vertex="1" parent="LwOGB4JMYsIEzYDBbSW3-27">
          <mxGeometry y="150" width="180" height="30" as="geometry" />
        </mxCell>
        <mxCell id="LwOGB4JMYsIEzYDBbSW3-25" value="" style="shape=partialRectangle;connectable=0;fillColor=none;top=0;left=0;bottom=0;right=0;editable=1;overflow=hidden;" vertex="1" parent="LwOGB4JMYsIEzYDBbSW3-24">
          <mxGeometry width="30" height="30" as="geometry" />
        </mxCell>
        <mxCell id="LwOGB4JMYsIEzYDBbSW3-26" value="Характеристика" style="shape=partialRectangle;connectable=0;fillColor=none;top=0;left=0;bottom=0;right=0;align=left;spacingLeft=6;overflow=hidden;" vertex="1" parent="LwOGB4JMYsIEzYDBbSW3-24">
          <mxGeometry x="30" width="150" height="30" as="geometry" />
        </mxCell>
        <mxCell id="LwOGB4JMYsIEzYDBbSW3-40" value="Накладная" style="shape=table;startSize=30;container=1;collapsible=1;childLayout=tableLayout;fixedRows=1;rowLines=0;fontStyle=1;align=center;resizeLast=1;swimlaneFillColor=#ffffff;rounded=1;fillColor=#f5f5f5;strokeColor=#666666;fontColor=#333333;" vertex="1" parent="1">
          <mxGeometry x="420" y="440" width="180" height="160" as="geometry" />
        </mxCell>
        <mxCell id="LwOGB4JMYsIEzYDBbSW3-41" value="" style="shape=partialRectangle;collapsible=0;dropTarget=0;pointerEvents=0;fillColor=none;top=0;left=0;bottom=1;right=0;points=[[0,0.5],[1,0.5]];portConstraint=eastwest;" vertex="1" parent="LwOGB4JMYsIEzYDBbSW3-40">
          <mxGeometry y="30" width="180" height="30" as="geometry" />
        </mxCell>
        <mxCell id="LwOGB4JMYsIEzYDBbSW3-42" value="PK" style="shape=partialRectangle;connectable=0;fillColor=none;top=0;left=0;bottom=0;right=0;fontStyle=1;overflow=hidden;" vertex="1" parent="LwOGB4JMYsIEzYDBbSW3-41">
          <mxGeometry width="30" height="30" as="geometry" />
        </mxCell>
        <mxCell id="LwOGB4JMYsIEzYDBbSW3-43" value="Уникальный номер" style="shape=partialRectangle;connectable=0;fillColor=none;top=0;left=0;bottom=0;right=0;align=left;spacingLeft=6;fontStyle=5;overflow=hidden;" vertex="1" parent="LwOGB4JMYsIEzYDBbSW3-41">
          <mxGeometry x="30" width="150" height="30" as="geometry" />
        </mxCell>
        <mxCell id="LwOGB4JMYsIEzYDBbSW3-44" value="" style="shape=partialRectangle;collapsible=0;dropTarget=0;pointerEvents=0;fillColor=none;top=0;left=0;bottom=0;right=0;points=[[0,0.5],[1,0.5]];portConstraint=eastwest;" vertex="1" parent="LwOGB4JMYsIEzYDBbSW3-40">
          <mxGeometry y="60" width="180" height="30" as="geometry" />
        </mxCell>
        <mxCell id="LwOGB4JMYsIEzYDBbSW3-45" value="" style="shape=partialRectangle;connectable=0;fillColor=none;top=0;left=0;bottom=0;right=0;editable=1;overflow=hidden;" vertex="1" parent="LwOGB4JMYsIEzYDBbSW3-44">
          <mxGeometry width="30" height="30" as="geometry" />
        </mxCell>
        <mxCell id="LwOGB4JMYsIEzYDBbSW3-46" value="Пункты" style="shape=partialRectangle;connectable=0;fillColor=none;top=0;left=0;bottom=0;right=0;align=left;spacingLeft=6;overflow=hidden;" vertex="1" parent="LwOGB4JMYsIEzYDBbSW3-44">
          <mxGeometry x="30" width="150" height="30" as="geometry" />
        </mxCell>
        <mxCell id="LwOGB4JMYsIEzYDBbSW3-47" value="" style="shape=partialRectangle;collapsible=0;dropTarget=0;pointerEvents=0;fillColor=none;top=0;left=0;bottom=0;right=0;points=[[0,0.5],[1,0.5]];portConstraint=eastwest;" vertex="1" parent="LwOGB4JMYsIEzYDBbSW3-40">
          <mxGeometry y="90" width="180" height="30" as="geometry" />
        </mxCell>
        <mxCell id="LwOGB4JMYsIEzYDBbSW3-48" value="" style="shape=partialRectangle;connectable=0;fillColor=none;top=0;left=0;bottom=0;right=0;editable=1;overflow=hidden;" vertex="1" parent="LwOGB4JMYsIEzYDBbSW3-47">
          <mxGeometry width="30" height="30" as="geometry" />
        </mxCell>
        <mxCell id="LwOGB4JMYsIEzYDBbSW3-49" value="Стоимость услуги" style="shape=partialRectangle;connectable=0;fillColor=none;top=0;left=0;bottom=0;right=0;align=left;spacingLeft=6;overflow=hidden;" vertex="1" parent="LwOGB4JMYsIEzYDBbSW3-47">
          <mxGeometry x="30" width="150" height="30" as="geometry" />
        </mxCell>
        <mxCell id="LwOGB4JMYsIEzYDBbSW3-50" value="" style="shape=partialRectangle;collapsible=0;dropTarget=0;pointerEvents=0;fillColor=none;top=0;left=0;bottom=0;right=0;points=[[0,0.5],[1,0.5]];portConstraint=eastwest;" vertex="1" parent="LwOGB4JMYsIEzYDBbSW3-40">
          <mxGeometry y="120" width="180" height="30" as="geometry" />
        </mxCell>
        <mxCell id="LwOGB4JMYsIEzYDBbSW3-51" value="" style="shape=partialRectangle;connectable=0;fillColor=none;top=0;left=0;bottom=0;right=0;editable=1;overflow=hidden;" vertex="1" parent="LwOGB4JMYsIEzYDBbSW3-50">
          <mxGeometry width="30" height="30" as="geometry" />
        </mxCell>
        <mxCell id="LwOGB4JMYsIEzYDBbSW3-52" value="Дата" style="shape=partialRectangle;connectable=0;fillColor=none;top=0;left=0;bottom=0;right=0;align=left;spacingLeft=6;overflow=hidden;" vertex="1" parent="LwOGB4JMYsIEzYDBbSW3-50">
          <mxGeometry x="30" width="150" height="30" as="geometry" />
        </mxCell>
        <mxCell id="LwOGB4JMYsIEzYDBbSW3-53" value="Магазин" style="shape=table;startSize=30;container=1;collapsible=1;childLayout=tableLayout;fixedRows=1;rowLines=0;fontStyle=1;align=center;resizeLast=1;fillColor=#f5f5f5;strokeColor=#666666;labelBackgroundColor=none;labelBorderColor=none;fontColor=#333333;swimlaneFillColor=#ffffff;shadow=0;rounded=1;sketch=0;" vertex="1" parent="1">
          <mxGeometry x="440" y="-60" width="180" height="160" as="geometry" />
        </mxCell>
        <mxCell id="LwOGB4JMYsIEzYDBbSW3-54" value="" style="shape=partialRectangle;collapsible=0;dropTarget=0;pointerEvents=0;fillColor=none;top=0;left=0;bottom=1;right=0;points=[[0,0.5],[1,0.5]];portConstraint=eastwest;" vertex="1" parent="LwOGB4JMYsIEzYDBbSW3-53">
          <mxGeometry y="30" width="180" height="30" as="geometry" />
        </mxCell>
        <mxCell id="LwOGB4JMYsIEzYDBbSW3-55" value="PK" style="shape=partialRectangle;connectable=0;fillColor=none;top=0;left=0;bottom=0;right=0;fontStyle=1;overflow=hidden;" vertex="1" parent="LwOGB4JMYsIEzYDBbSW3-54">
          <mxGeometry width="30" height="30" as="geometry" />
        </mxCell>
        <mxCell id="LwOGB4JMYsIEzYDBbSW3-56" value="Название" style="shape=partialRectangle;connectable=0;fillColor=none;top=0;left=0;bottom=0;right=0;align=left;spacingLeft=6;fontStyle=5;overflow=hidden;" vertex="1" parent="LwOGB4JMYsIEzYDBbSW3-54">
          <mxGeometry x="30" width="150" height="30" as="geometry" />
        </mxCell>
        <mxCell id="LwOGB4JMYsIEzYDBbSW3-57" value="" style="shape=partialRectangle;collapsible=0;dropTarget=0;pointerEvents=0;fillColor=none;top=0;left=0;bottom=0;right=0;points=[[0,0.5],[1,0.5]];portConstraint=eastwest;" vertex="1" parent="LwOGB4JMYsIEzYDBbSW3-53">
          <mxGeometry y="60" width="180" height="30" as="geometry" />
        </mxCell>
        <mxCell id="LwOGB4JMYsIEzYDBbSW3-58" value="" style="shape=partialRectangle;connectable=0;fillColor=none;top=0;left=0;bottom=0;right=0;editable=1;overflow=hidden;" vertex="1" parent="LwOGB4JMYsIEzYDBbSW3-57">
          <mxGeometry width="30" height="30" as="geometry" />
        </mxCell>
        <mxCell id="LwOGB4JMYsIEzYDBbSW3-59" value="Адрес веб-сайта" style="shape=partialRectangle;connectable=0;fillColor=none;top=0;left=0;bottom=0;right=0;align=left;spacingLeft=6;overflow=hidden;" vertex="1" parent="LwOGB4JMYsIEzYDBbSW3-57">
          <mxGeometry x="30" width="150" height="30" as="geometry" />
        </mxCell>
        <mxCell id="LwOGB4JMYsIEzYDBbSW3-60" value="" style="shape=partialRectangle;collapsible=0;dropTarget=0;pointerEvents=0;fillColor=none;top=0;left=0;bottom=0;right=0;points=[[0,0.5],[1,0.5]];portConstraint=eastwest;" vertex="1" parent="LwOGB4JMYsIEzYDBbSW3-53">
          <mxGeometry y="90" width="180" height="30" as="geometry" />
        </mxCell>
        <mxCell id="LwOGB4JMYsIEzYDBbSW3-61" value="" style="shape=partialRectangle;connectable=0;fillColor=none;top=0;left=0;bottom=0;right=0;editable=1;overflow=hidden;" vertex="1" parent="LwOGB4JMYsIEzYDBbSW3-60">
          <mxGeometry width="30" height="30" as="geometry" />
        </mxCell>
        <mxCell id="LwOGB4JMYsIEzYDBbSW3-62" value="Номер поддержки" style="shape=partialRectangle;connectable=0;fillColor=none;top=0;left=0;bottom=0;right=0;align=left;spacingLeft=6;overflow=hidden;" vertex="1" parent="LwOGB4JMYsIEzYDBbSW3-60">
          <mxGeometry x="30" width="150" height="30" as="geometry" />
        </mxCell>
        <mxCell id="LwOGB4JMYsIEzYDBbSW3-63" value="" style="shape=partialRectangle;collapsible=0;dropTarget=0;pointerEvents=0;fillColor=none;top=0;left=0;bottom=0;right=0;points=[[0,0.5],[1,0.5]];portConstraint=eastwest;" vertex="1" parent="LwOGB4JMYsIEzYDBbSW3-53">
          <mxGeometry y="120" width="180" height="30" as="geometry" />
        </mxCell>
        <mxCell id="LwOGB4JMYsIEzYDBbSW3-64" value="" style="shape=partialRectangle;connectable=0;fillColor=none;top=0;left=0;bottom=0;right=0;editable=1;overflow=hidden;" vertex="1" parent="LwOGB4JMYsIEzYDBbSW3-63">
          <mxGeometry width="30" height="30" as="geometry" />
        </mxCell>
        <mxCell id="LwOGB4JMYsIEzYDBbSW3-65" value="Физический адрес" style="shape=partialRectangle;connectable=0;fillColor=none;top=0;left=0;bottom=0;right=0;align=left;spacingLeft=6;overflow=hidden;" vertex="1" parent="LwOGB4JMYsIEzYDBbSW3-63">
          <mxGeometry x="30" width="150" height="30" as="geometry" />
        </mxCell>
        <mxCell id="LwOGB4JMYsIEzYDBbSW3-66" value="" style="edgeStyle=orthogonalEdgeStyle;fontSize=12;html=1;endArrow=ERoneToMany;entryX=0;entryY=0.5;entryDx=0;entryDy=0;" edge="1" parent="1" target="LwOGB4JMYsIEzYDBbSW3-28">
          <mxGeometry width="100" height="100" relative="1" as="geometry">
            <mxPoint x="440" y="-15" as="sourcePoint" />
            <mxPoint x="300" y="10" as="targetPoint" />
            <Array as="points">
              <mxPoint x="220" y="-15" />
              <mxPoint x="220" y="205" />
            </Array>
          </mxGeometry>
        </mxCell>
        <mxCell id="LwOGB4JMYsIEzYDBbSW3-67" value="Поставка" style="shape=table;startSize=30;container=1;collapsible=1;childLayout=tableLayout;fixedRows=1;rowLines=0;fontStyle=1;align=center;resizeLast=1;swimlaneFillColor=#ffffff;rounded=1;fillColor=#f5f5f5;strokeColor=#666666;fontColor=#333333;" vertex="1" parent="1">
          <mxGeometry x="720" y="340" width="190" height="140" as="geometry" />
        </mxCell>
        <mxCell id="LwOGB4JMYsIEzYDBbSW3-68" value="" style="shape=partialRectangle;collapsible=0;dropTarget=0;pointerEvents=0;fillColor=none;top=0;left=0;bottom=1;right=0;points=[[0,0.5],[1,0.5]];portConstraint=eastwest;" vertex="1" parent="LwOGB4JMYsIEzYDBbSW3-67">
          <mxGeometry y="30" width="190" height="30" as="geometry" />
        </mxCell>
        <mxCell id="LwOGB4JMYsIEzYDBbSW3-69" value="PK" style="shape=partialRectangle;connectable=0;fillColor=none;top=0;left=0;bottom=0;right=0;fontStyle=1;overflow=hidden;" vertex="1" parent="LwOGB4JMYsIEzYDBbSW3-68">
          <mxGeometry width="30" height="30" as="geometry" />
        </mxCell>
        <mxCell id="LwOGB4JMYsIEzYDBbSW3-70" value="Номер" style="shape=partialRectangle;connectable=0;fillColor=none;top=0;left=0;bottom=0;right=0;align=left;spacingLeft=6;fontStyle=5;overflow=hidden;" vertex="1" parent="LwOGB4JMYsIEzYDBbSW3-68">
          <mxGeometry x="30" width="160" height="30" as="geometry" />
        </mxCell>
        <mxCell id="LwOGB4JMYsIEzYDBbSW3-71" value="" style="shape=partialRectangle;collapsible=0;dropTarget=0;pointerEvents=0;fillColor=none;top=0;left=0;bottom=0;right=0;points=[[0,0.5],[1,0.5]];portConstraint=eastwest;" vertex="1" parent="LwOGB4JMYsIEzYDBbSW3-67">
          <mxGeometry y="60" width="190" height="30" as="geometry" />
        </mxCell>
        <mxCell id="LwOGB4JMYsIEzYDBbSW3-72" value="" style="shape=partialRectangle;connectable=0;fillColor=none;top=0;left=0;bottom=0;right=0;editable=1;overflow=hidden;" vertex="1" parent="LwOGB4JMYsIEzYDBbSW3-71">
          <mxGeometry width="30" height="30" as="geometry" />
        </mxCell>
        <mxCell id="LwOGB4JMYsIEzYDBbSW3-73" value="Количество товара" style="shape=partialRectangle;connectable=0;fillColor=none;top=0;left=0;bottom=0;right=0;align=left;spacingLeft=6;overflow=hidden;" vertex="1" parent="LwOGB4JMYsIEzYDBbSW3-71">
          <mxGeometry x="30" width="160" height="30" as="geometry" />
        </mxCell>
        <mxCell id="LwOGB4JMYsIEzYDBbSW3-77" value="" style="shape=partialRectangle;collapsible=0;dropTarget=0;pointerEvents=0;fillColor=none;top=0;left=0;bottom=0;right=0;points=[[0,0.5],[1,0.5]];portConstraint=eastwest;" vertex="1" parent="LwOGB4JMYsIEzYDBbSW3-67">
          <mxGeometry y="90" width="190" height="20" as="geometry" />
        </mxCell>
        <mxCell id="LwOGB4JMYsIEzYDBbSW3-78" value="" style="shape=partialRectangle;connectable=0;fillColor=none;top=0;left=0;bottom=0;right=0;editable=1;overflow=hidden;" vertex="1" parent="LwOGB4JMYsIEzYDBbSW3-77">
          <mxGeometry width="30" height="20" as="geometry" />
        </mxCell>
        <mxCell id="LwOGB4JMYsIEzYDBbSW3-79" value="" style="shape=partialRectangle;connectable=0;fillColor=none;top=0;left=0;bottom=0;right=0;align=left;spacingLeft=6;overflow=hidden;" vertex="1" parent="LwOGB4JMYsIEzYDBbSW3-77">
          <mxGeometry x="30" width="160" height="20" as="geometry" />
        </mxCell>
        <mxCell id="LwOGB4JMYsIEzYDBbSW3-74" value="" style="shape=partialRectangle;collapsible=0;dropTarget=0;pointerEvents=0;fillColor=none;top=0;left=0;bottom=0;right=0;points=[[0,0.5],[1,0.5]];portConstraint=eastwest;" vertex="1" parent="LwOGB4JMYsIEzYDBbSW3-67">
          <mxGeometry y="110" width="190" height="30" as="geometry" />
        </mxCell>
        <mxCell id="LwOGB4JMYsIEzYDBbSW3-75" value="" style="shape=partialRectangle;connectable=0;fillColor=none;top=0;left=0;bottom=0;right=0;editable=1;overflow=hidden;" vertex="1" parent="LwOGB4JMYsIEzYDBbSW3-74">
          <mxGeometry width="30" height="30" as="geometry" />
        </mxCell>
        <mxCell id="LwOGB4JMYsIEzYDBbSW3-76" value="" style="shape=partialRectangle;connectable=0;fillColor=none;top=0;left=0;bottom=0;right=0;align=left;spacingLeft=6;overflow=hidden;" vertex="1" parent="LwOGB4JMYsIEzYDBbSW3-74">
          <mxGeometry x="30" width="160" height="30" as="geometry" />
        </mxCell>
        <mxCell id="LwOGB4JMYsIEzYDBbSW3-80" value="" style="edgeStyle=orthogonalEdgeStyle;fontSize=12;html=1;endArrow=ERmany;startArrow=ERmany;exitX=1;exitY=0.5;exitDx=0;exitDy=0;entryX=0;entryY=0.5;entryDx=0;entryDy=0;" edge="1" parent="1" source="LwOGB4JMYsIEzYDBbSW3-54" target="LwOGB4JMYsIEzYDBbSW3-15">
          <mxGeometry width="100" height="100" relative="1" as="geometry">
            <mxPoint x="750" y="70" as="sourcePoint" />
            <mxPoint x="850" y="-30" as="targetPoint" />
            <Array as="points">
              <mxPoint x="670" y="-15" />
              <mxPoint x="670" y="205" />
            </Array>
          </mxGeometry>
        </mxCell>
        <mxCell id="LwOGB4JMYsIEzYDBbSW3-81" value="" style="edgeStyle=entityRelationEdgeStyle;fontSize=12;html=1;endArrow=ERoneToMany;exitX=1;exitY=0.5;exitDx=0;exitDy=0;" edge="1" parent="1" source="LwOGB4JMYsIEzYDBbSW3-15" target="LwOGB4JMYsIEzYDBbSW3-68">
          <mxGeometry width="100" height="100" relative="1" as="geometry">
            <mxPoint x="490" y="370" as="sourcePoint" />
            <mxPoint x="590" y="270" as="targetPoint" />
          </mxGeometry>
        </mxCell>
        <mxCell id="LwOGB4JMYsIEzYDBbSW3-83" value="" style="edgeStyle=orthogonalEdgeStyle;fontSize=12;html=1;endArrow=ERoneToMany;exitX=1;exitY=0.5;exitDx=0;exitDy=0;entryX=0;entryY=0.5;entryDx=0;entryDy=0;" edge="1" parent="1" source="LwOGB4JMYsIEzYDBbSW3-41" target="LwOGB4JMYsIEzYDBbSW3-68">
          <mxGeometry width="100" height="100" relative="1" as="geometry">
            <mxPoint x="690" y="640" as="sourcePoint" />
            <mxPoint x="790" y="540" as="targetPoint" />
          </mxGeometry>
        </mxCell>
      </root>
    </mxGraphModel>
  </diagram>
</mxfile>
